<svg xmlns="http://www.w3.org/2000/svg" viewBox="0 0 252 223" width="252" height="223">
	<style>
		tspan { white-space:pre }
		.shp0 { fill: #01d277 } 
	</style>
	<path id="Layer" class="shp0" d="M226.85 208.25C241.45 208.25 251.33 198.37 251.33 183.77L251.33 24.49C251.33 9.89 241.45 0.01 226.85 0.01L24.48 0.01C9.88 0.01 0 9.89 0 24.49L0 222.82L12.56 208.26L12.56 208.26L12.56 24.49C12.56 22.93 12.87 21.38 13.47 19.93C14.07 18.49 14.95 17.17 16.06 16.07C17.16 14.96 18.48 14.08 19.92 13.48C21.37 12.88 22.92 12.57 24.48 12.57L226.85 12.57C228.41 12.57 229.96 12.88 231.41 13.48C232.85 14.08 234.17 14.96 235.27 16.07C236.38 17.17 237.26 18.49 237.86 19.93C238.46 21.38 238.77 22.93 238.77 24.49L238.77 183.77C238.77 185.33 238.46 186.88 237.86 188.33C237.26 189.77 236.38 191.09 235.27 192.19C234.17 193.3 232.85 194.18 231.41 194.78C229.96 195.38 228.41 195.69 226.85 195.69L43.11 195.69L30.55 208.25L30.47 208.15" />
	<path id="Layer" class="shp0" d="M68.66 67.35L54.97 52.11L52.74 52.11L52.74 87.35L59.78 87.35L59.78 67.98L68.66 77.3L77.54 67.98L77.5 87.35L84.53 87.35L84.53 52.11L82.35 52.11L68.66 67.35L68.66 67.35Z" />
	<path id="Rama!!! " fill="#01d277" d="M89.87 128.3Q90.41 128.3 90.71 128.8Q91.04 129.31 91.04 130.19Q91.04 131.83 90.25 132.79Q88.23 135.23 86.17 136.57Q84.11 137.88 81.3 137.88Q78.57 137.88 76.64 136.41Q74.75 134.94 73.03 131.37Q71.64 128.51 70.84 127.17Q70.04 125.78 69.25 125.19Q68.49 124.6 67.36 124.48Q67.19 125.36 66.39 130.02Q66.05 132.12 65.97 132.58Q65.55 135.15 64.29 136.53Q63.03 137.88 60.47 137.88Q57.65 137.88 55.47 136.24Q53.33 134.56 52.15 131.62Q50.98 128.64 50.98 124.86Q50.98 117.8 53.41 112.68Q55.89 107.55 60.3 104.86Q64.75 102.13 70.55 102.13Q74.58 102.13 77.31 103.35Q80.04 104.57 81.34 106.71Q82.69 108.85 82.69 111.54Q82.69 113.89 81.55 116.16Q80.46 118.39 78.23 120.11Q76.01 121.83 72.82 122.67Q74.83 123.22 75.92 124.44Q77.02 125.65 78.11 128.01Q79.28 130.53 80.42 131.7Q81.59 132.88 83.11 132.88Q84.45 132.88 85.67 132Q86.89 131.07 88.73 128.89Q89.24 128.3 89.87 128.3ZM60.43 130.74L61.56 124.44Q60.13 124.44 59.59 123.76Q59.08 123.09 59.08 122.25Q59.08 121.24 59.71 120.66Q60.38 120.07 61.22 120.07L62.27 120.07Q62.95 115.95 63.53 112.97Q64.08 110.24 67.06 110.24Q69.46 110.24 69.46 112.38Q69.46 112.84 69.41 113.1L68.15 120.07Q70.42 119.94 72.27 118.98Q74.16 118.01 75.25 116.29Q76.39 114.57 76.39 112.38Q76.39 109.74 74.58 108.22Q72.77 106.71 69.29 106.71Q65.17 106.71 62.06 108.77Q59 110.79 57.28 114.82Q55.55 118.81 55.55 124.56Q55.55 127.25 56.1 129.18Q56.65 131.11 57.44 132.08Q58.24 133.05 58.96 133.05Q59.5 133.05 59.84 132.5Q60.22 131.95 60.43 130.74ZM91.97 137.88Q89.36 137.88 87.81 135.99Q86.26 134.1 86.26 131.03Q86.26 127.67 87.81 124.69Q89.36 121.66 91.93 119.86Q94.53 118.01 97.43 118.01Q98.35 118.01 98.65 118.39Q98.98 118.72 99.19 119.65Q100.07 119.48 101.04 119.48Q103.1 119.48 103.1 120.95Q103.1 121.83 102.47 125.15Q101.5 129.98 101.5 131.87Q101.5 132.5 101.8 132.88Q102.13 133.26 102.64 133.26Q103.43 133.26 104.57 132.25Q105.7 131.2 107.63 128.89Q108.14 128.3 108.77 128.3Q109.31 128.3 109.61 128.8Q109.94 129.31 109.94 130.19Q109.94 131.87 109.15 132.79Q107.42 134.94 105.49 136.41Q103.56 137.88 101.75 137.88Q100.37 137.88 99.19 136.95Q98.06 135.99 97.47 134.35Q95.29 137.88 91.97 137.88ZM93.48 133.63Q94.4 133.63 95.24 132.54Q96.08 131.45 96.46 129.64L98.02 121.92Q96.25 121.96 94.74 123.26Q93.27 124.52 92.39 126.62Q91.51 128.72 91.51 131.07Q91.51 132.37 92.01 133Q92.56 133.63 93.48 133.63ZM109.52 137.88Q107.93 137.88 107.26 136.2Q106.63 134.52 106.63 130.82Q106.63 125.36 108.18 120.45Q108.56 119.23 109.4 118.68Q110.28 118.09 111.83 118.09Q112.67 118.09 113.01 118.3Q113.35 118.51 113.35 119.1Q113.35 119.77 112.72 122.13Q112.3 123.81 112.04 125.07Q111.79 126.28 111.62 128.13Q112.76 124.86 114.31 122.59Q115.91 120.32 117.55 119.23Q119.23 118.09 120.7 118.09Q122.17 118.09 122.75 118.77Q123.38 119.44 123.38 120.82Q123.38 122.17 122.59 125.7Q122.25 127.21 122.12 127.96Q124.22 122.8 126.79 120.45Q129.35 118.09 131.57 118.09Q134.3 118.09 134.3 120.82Q134.3 122.46 133.38 126.75Q132.58 130.4 132.58 131.58Q132.58 133.26 133.8 133.26Q134.64 133.26 135.77 132.25Q136.95 131.2 138.88 128.89Q139.39 128.3 140.02 128.3Q140.56 128.3 140.86 128.8Q141.19 129.31 141.19 130.19Q141.19 131.87 140.39 132.79Q138.59 135.02 136.49 136.45Q134.43 137.88 131.78 137.88Q129.64 137.88 128.55 136.66Q127.46 135.4 127.46 133.05Q127.46 131.87 128.05 128.85Q128.59 126.2 128.59 125.19Q128.59 124.52 128.13 124.52Q127.58 124.52 126.58 125.95Q125.57 127.33 124.56 129.64Q123.55 131.95 122.92 134.52Q122.46 136.53 121.83 137.2Q121.24 137.88 119.9 137.88Q118.51 137.88 117.8 136.57Q117.13 135.23 117.13 133.34Q117.13 131.74 117.55 128.72Q117.88 126.03 117.88 125.19Q117.88 124.52 117.42 124.52Q116.79 124.52 115.82 126.03Q114.86 127.54 113.93 129.9Q113.05 132.25 112.51 134.52Q112.04 136.49 111.41 137.2Q110.83 137.88 109.52 137.88ZM142.62 137.88Q140.23 137.88 138.71 135.99Q137.24 134.1 137.24 131.03Q137.24 127.67 138.8 124.69Q140.35 121.66 142.91 119.86Q145.52 118.01 148.42 118.01Q149.34 118.01 149.63 118.39Q149.97 118.72 150.18 119.65Q150.98 119.48 151.94 119.48Q152.95 119.48 153.5 119.98Q154.04 120.49 154.04 121.41Q154.04 122.38 153.62 124.77Q153.16 127.33 152.91 129.69Q152.66 132 152.66 134.89Q152.66 136.49 151.99 137.2Q151.36 137.88 149.89 137.88Q148.46 137.88 147.74 137.2Q147.07 136.49 147.07 134.94L147.11 134.26Q145.81 137.88 142.62 137.88ZM144.26 133.63Q145.43 133.63 146.4 132Q147.37 130.36 148.12 126.16L148.92 121.92Q147.2 121.96 145.73 123.26Q144.26 124.52 143.38 126.62Q142.49 128.72 142.49 131.07Q142.49 132.33 142.96 133Q143.46 133.63 144.26 133.63ZM162.57 127.84Q161.73 127.84 161.18 127.46Q160.64 127.08 160.64 126.28L160.68 125.95Q161.39 121.24 162.61 115.24Q163.83 109.23 164.88 104.86Q165.55 102.18 168.53 102.18Q171.22 102.18 171.22 103.9Q171.22 104.28 171.1 104.74Q170 109.19 168.2 115.53Q166.39 121.83 164.75 126.49Q164.29 127.84 162.57 127.84ZM160.97 137.88Q159.13 137.88 158.16 136.87Q157.24 135.86 157.24 134.22Q157.24 132.33 158.29 131.2Q159.38 130.06 161.31 130.06Q163.16 130.06 164.08 130.99Q165.05 131.87 165.05 133.63Q165.05 135.57 163.96 136.74Q162.86 137.88 160.97 137.88ZM176.85 127.84Q176.01 127.84 175.46 127.46Q174.92 127.08 174.92 126.28L174.96 125.95Q175.67 121.24 176.89 115.24Q178.11 109.23 179.16 104.86Q179.83 102.18 182.81 102.18Q185.5 102.18 185.5 103.9Q185.5 104.28 185.38 104.74Q184.28 109.19 182.48 115.53Q180.67 121.83 179.03 126.49Q178.57 127.84 176.85 127.84ZM175.25 137.88Q173.41 137.88 172.44 136.87Q171.52 135.86 171.52 134.22Q171.52 132.33 172.57 131.2Q173.66 130.06 175.59 130.06Q177.44 130.06 178.36 130.99Q179.33 131.87 179.33 133.63Q179.33 135.57 178.24 136.74Q177.14 137.88 175.25 137.88ZM191.13 127.84Q190.29 127.84 189.74 127.46Q189.2 127.08 189.2 126.28L189.24 125.95Q189.95 121.24 191.17 115.24Q192.39 109.23 193.44 104.86Q194.11 102.18 197.09 102.18Q199.78 102.18 199.78 103.9Q199.78 104.28 199.66 104.74Q198.56 109.19 196.76 115.53Q194.95 121.83 193.31 126.49Q192.85 127.84 191.13 127.84ZM189.53 137.88Q187.69 137.88 186.72 136.87Q185.8 135.86 185.8 134.22Q185.8 132.33 186.85 131.2Q187.94 130.06 189.87 130.06Q191.72 130.06 192.64 130.99Q193.61 131.87 193.61 133.63Q193.61 135.57 192.52 136.74Q191.42 137.88 189.53 137.88Z" />
	<path id="Layer" fill-rule="evenodd" class="shp0" d="M108.04 86.84C84.16 86.84 84.16 51.07 108.04 51.07C131.92 51.07 131.92 86.84 108.04 86.84ZM108.04 58.21C94.16 58.21 94.16 79.66 108.04 79.66C121.92 79.66 121.92 58.21 108.04 58.21Z" />
	<path id="Layer" class="shp0" d="M165.37 52.65L172.31 52.65L172.31 87.35L165.37 87.35L165.37 52.65Z" />
	<path id="Layer" class="shp0" d="M185.07 80.41L185.07 73.47L196.19 73.47L196.19 66.53L185.07 66.53L185.07 59.59L197.5 59.59L197.5 52.65L178.13 52.65L178.13 87.35L198.09 87.35L198.09 80.41L185.07 80.41L185.07 80.41Z" />
	<path id="Layer" class="shp0" d="M144.01 71.38L134.87 52.65L126.86 52.65L143.23 88.08L144.79 88.08L161.15 52.65L153.14 52.65L144.01 71.38L144.01 71.38Z" />
</svg>