<?xml version="1.0" standalone="no"?>
<!DOCTYPE svg PUBLIC "-//W3C//DTD SVG 20010904//EN"
 "http://www.w3.org/TR/2001/REC-SVG-20010904/DTD/svg10.dtd">
<svg version="1.0" xmlns="http://www.w3.org/2000/svg"
 width="1008.000000pt" height="1008.000000pt" viewBox="0 0 1008.000000 1008.000000"
 preserveAspectRatio="xMidYMid meet">
<metadata>
Created by potrace 1.11, written by Peter Selinger 2001-2013
</metadata>
<g transform="translate(0.000000,1008.000000) scale(0.100000,-0.100000)"
fill="#000000" stroke="none">
<path d="M815 9489 c-27 -5 -59 -11 -70 -13 -29 -5 -106 -25 -140 -38 -37 -14
-176 -80 -190 -91 -5 -4 -32 -24 -59 -45 -97 -73 -180 -172 -234 -277 -42 -81
-70 -147 -76 -176 -2 -13 -9 -36 -14 -50 -6 -15 -8 -29 -5 -32 3 -3 1 -12 -3
-19 -4 -7 -10 -22 -13 -33 -2 -11 -6 -1845 -7 -4075 -3 -3547 -2 -4053 11
-4036 8 11 25 31 37 45 13 15 50 58 83 96 33 39 62 72 65 75 3 3 32 37 65 75
33 39 62 72 65 75 3 3 32 37 64 75 33 39 65 75 71 80 40 34 38 -104 40 3775
l1 3715 21 56 c54 145 147 240 290 296 l68 27 4125 1 c3390 2 4133 0 4170 -11
25 -8 47 -14 50 -14 25 -5 102 -47 136 -76 75 -61 108 -103 149 -193 l30 -66
2 -3275 c2 -2240 0 -3288 -7 -3315 -14 -53 -42 -118 -55 -127 -5 -4 -6 -8 -2
-8 14 0 -69 -98 -117 -138 -29 -24 -121 -70 -166 -83 -37 -11 -729 -14 -3755
-15 -2041 -1 -3713 -3 -3717 -3 -6 -1 -437 -430 -481 -478 -17 -20 14 -20
3985 -19 2202 1 4019 5 4038 9 123 29 195 53 270 89 260 125 435 359 495 661
2 9 7 54 11 100 9 96 9 6550 0 6617 -12 93 -14 106 -25 150 -15 55 -28 92 -52
147 -11 24 -19 46 -19 49 0 3 -9 19 -21 35 -11 16 -17 29 -12 29 4 0 3 4 -3 8
-6 4 -25 29 -43 55 -39 57 -150 169 -192 194 -16 10 -29 21 -29 26 0 4 -4 6
-9 3 -5 -3 -14 1 -21 9 -7 8 -19 15 -26 15 -8 0 -14 5 -14 10 0 6 -9 10 -20
10 -11 0 -20 4 -20 9 0 5 -10 11 -22 14 -13 3 -50 16 -83 28 -33 12 -105 30
-160 40 -95 17 -288 18 -4255 17 -2427 0 -4176 -4 -4205 -9z"/>
<path d="M4205 7451 c-3 -3 -16 -6 -28 -7 -23 -2 -53 -9 -90 -19 -21 -6 -34
-11 -97 -39 -75 -32 -230 -157 -230 -185 0 -6 -4 -11 -8 -11 -21 0 -112 -191
-126 -265 -25 -129 -25 -280 0 -359 4 -11 8 -28 9 -36 12 -81 90 -215 174
-299 79 -79 90 -87 182 -133 257 -127 625 -79 821 106 73 68 166 205 151 220
-4 3 -2 6 4 6 8 0 20 23 21 43 1 1 6 16 12 32 7 17 14 39 16 50 2 11 8 41 12
67 10 50 8 212 -3 263 -47 231 -176 406 -365 496 -94 45 -101 48 -144 54 -21
3 -43 8 -48 11 -13 8 -256 13 -263 5z m252 -299 c63 -20 119 -56 165 -103 38
-40 93 -143 103 -194 11 -56 13 -164 4 -202 -5 -21 -12 -46 -14 -57 -19 -82
-106 -188 -192 -233 -157 -83 -370 -56 -489 61 -174 172 -170 476 10 648 35
34 152 92 166 83 6 -3 10 -2 10 3 0 16 185 11 237 -6z"/>
<path d="M2110 6711 l0 -706 135 1 c74 0 137 3 141 6 3 4 6 175 6 382 0 207 2
376 5 376 2 0 50 -48 106 -106 56 -59 134 -140 173 -181 l71 -75 59 63 c32 34
82 85 109 114 28 29 78 82 113 120 35 37 66 65 68 62 3 -3 5 -174 4 -381 l0
-376 22 -1 c112 -4 251 -3 254 3 3 5 6 792 4 1313 l0 90 -43 0 c-37 1 -46 -4
-77 -38 -19 -22 -55 -61 -80 -88 -25 -26 -65 -71 -90 -99 -25 -29 -65 -73 -88
-99 -24 -25 -61 -67 -83 -92 -21 -25 -51 -59 -66 -75 -15 -16 -45 -49 -66 -72
l-38 -43 -32 33 c-41 43 -115 124 -197 217 -36 40 -76 85 -90 100 -14 15 -59
65 -100 111 -136 152 -127 144 -175 145 l-45 2 0 -706z"/>
<path d="M5089 7389 c-9 -5 14 -62 86 -214 33 -69 83 -178 132 -285 14 -30 38
-82 53 -115 16 -33 45 -96 65 -140 21 -44 53 -114 72 -155 49 -105 56 -124 55
-132 -1 -5 3 -8 8 -8 6 0 10 -4 10 -9 0 -5 20 -51 43 -103 24 -51 59 -127 77
-168 19 -41 35 -77 36 -78 2 -2 17 -5 34 -6 28 -2 33 2 52 43 11 25 37 82 58
126 20 44 50 109 65 145 16 36 34 68 40 72 5 4 6 8 2 8 -7 0 6 31 34 80 5 8
12 22 15 30 13 33 39 89 74 165 62 131 84 180 85 185 0 3 12 28 26 55 14 28
26 53 27 57 2 8 23 54 96 211 94 201 106 229 102 235 -3 5 -278 8 -307 3 -5
-1 -70 -126 -74 -141 -3 -17 -41 -86 -49 -92 -6 -4 -8 -8 -4 -8 6 0 -109 -244
-132 -280 -6 -8 -15 -26 -20 -39 -6 -12 -28 -59 -49 -103 -38 -79 -39 -79 -55
-56 -9 12 -16 30 -16 39 0 9 -7 22 -15 29 -8 7 -15 16 -15 21 0 4 -59 128
-131 276 -72 147 -140 287 -150 311 -10 23 -22 42 -26 43 -33 4 -297 3 -304
-2z"/>
<path d="M6617 7385 c-2 -5 -3 -318 -3 -694 l1 -684 128 -1 c71 -1 133 2 139
5 11 7 15 1366 4 1376 -11 11 -265 9 -269 -2z"/>
<path d="M7131 7390 c-12 -9 -7 -1370 6 -1378 8 -5 723 -8 778 -3 8 1 13 239
6 271 -1 3 -112 5 -248 4 -137 0 -253 1 -258 3 -13 4 -14 257 -2 269 10 11 77
12 77 1 0 -4 5 -5 12 -1 17 11 78 12 78 1 0 -4 8 -4 18 0 15 7 47 9 62 3 18
-6 40 -7 40 -1 0 9 54 6 69 -4 6 -3 11 -2 11 2 0 5 15 8 33 8 l32 0 3 131 2
132 -30 10 c-16 6 -32 8 -34 4 -5 -8 -80 -6 -102 2 -7 3 -16 2 -18 -3 -4 -6
-71 -7 -101 -1 -5 1 -12 1 -15 0 -14 -5 -70 -4 -70 1 0 4 -16 3 -35 -1 -19 -4
-37 -5 -39 -1 -1 3 -3 67 -2 141 l1 135 244 0 c236 0 244 1 248 20 6 33 5 186
-1 192 -3 3 -1 13 4 22 22 43 11 44 -385 45 -207 1 -380 -1 -384 -4z"/>
<path d="M2757 5414 c-1 -1 -27 -5 -56 -8 -104 -12 -273 -77 -318 -121 -8 -8
-18 -15 -22 -15 -30 0 -211 -221 -211 -257 0 -7 -5 -13 -10 -13 -6 0 -9 -3 -8
-7 1 -5 -6 -25 -15 -46 -17 -39 -39 -109 -43 -137 -2 -8 -5 -26 -8 -40 -39
-162 -34 -364 11 -505 38 -121 141 -238 228 -262 98 -26 159 -23 223 9 38 19
52 33 74 78 15 30 30 69 33 85 2 17 9 55 15 85 6 30 13 64 14 75 18 131 31
185 44 180 7 -3 20 -5 28 -5 30 0 92 -82 154 -206 36 -70 68 -133 73 -139 61
-83 81 -105 116 -130 71 -49 196 -63 291 -33 19 6 54 24 78 39 50 34 57 35 74
11 19 -27 86 -65 103 -58 8 3 17 1 20 -3 8 -14 80 -4 126 17 42 20 99 64 99
77 0 4 7 13 15 21 12 13 16 11 29 -13 66 -125 183 -141 313 -42 29 22 54 37
54 34 12 -49 31 -77 63 -90 58 -24 130 10 140 67 3 13 5 23 6 23 1 0 3 7 5 15
44 194 153 420 202 420 11 0 17 -27 15 -60 -3 -44 -14 -153 -19 -180 -9 -59
-6 -175 6 -212 32 -97 142 -113 190 -28 12 22 22 42 21 45 0 3 0 6 1 8 0 1 2
9 4 17 8 38 60 196 65 200 3 3 12 21 20 40 20 52 80 139 107 157 21 14 26 14
33 3 5 -8 7 -17 6 -20 -2 -3 -6 -27 -10 -55 -3 -27 -8 -61 -11 -75 -34 -163
-33 -242 2 -302 29 -50 75 -71 148 -71 80 1 126 16 195 64 l55 39 30 -34 c17
-19 44 -41 61 -50 91 -45 210 -8 245 75 13 34 21 31 25 -8 3 -28 35 -78 50
-78 5 0 14 -3 19 -6 15 -9 80 -2 104 10 34 18 44 51 48 146 4 133 20 285 38
365 3 14 8 47 9 73 2 27 6 50 9 53 3 3 0 18 -6 34 -13 35 -51 52 -103 48 -34
-3 -42 1 -60 27 -19 28 -24 30 -82 29 -64 -1 -116 -18 -187 -64 -46 -29 -135
-119 -135 -137 0 -7 -3 -13 -8 -13 -14 0 -69 -128 -76 -180 -1 -9 -4 -20 -7
-25 -3 -6 -7 -28 -8 -50 -2 -33 -11 -47 -49 -82 -57 -53 -99 -64 -123 -34 -21
26 -15 120 15 236 4 14 15 65 22 100 3 17 7 67 10 111 3 75 1 84 -21 108 -13
14 -31 27 -40 27 -8 1 -25 2 -37 3 -33 3 -90 -14 -110 -32 -10 -8 -18 -12 -18
-9 0 8 -45 -28 -84 -68 -47 -49 -77 -92 -123 -178 -24 -45 -42 -73 -39 -62 6
22 23 109 33 165 3 19 5 57 5 85 -5 155 -201 126 -338 -50 -37 -48 -108 -177
-109 -197 0 -3 -4 -10 -9 -15 -11 -10 -4 34 33 204 33 153 31 159 -49 157 -81
-2 -124 -41 -146 -134 -4 -19 -8 -37 -9 -40 -10 -35 -15 -60 -19 -85 -2 -16
-5 -30 -6 -30 -2 0 -7 -59 -11 -135 -4 -52 -7 -58 -61 -112 -60 -61 -94 -76
-127 -59 -28 16 -24 87 19 326 33 179 30 200 -30 212 -26 6 -81 5 -87 -1 -3
-3 -15 9 -27 27 -19 28 -27 32 -71 33 -104 2 -216 -57 -303 -160 -41 -49 -98
-152 -107 -195 -3 -12 -7 -31 -10 -43 -3 -13 -8 -48 -11 -78 -7 -62 -15 -75
-58 -97 -42 -22 -104 -20 -144 4 -43 26 -72 67 -133 183 -27 52 -57 104 -67
116 -25 30 -103 84 -113 79 -4 -3 -10 -1 -13 3 -3 5 14 15 37 21 115 34 245
139 293 237 14 29 25 54 23 56 -1 2 3 14 10 27 30 56 18 200 -23 280 -23 43
-95 121 -112 121 -8 0 -14 3 -14 8 0 4 -15 13 -32 20 -18 8 -42 18 -53 23 -20
8 -50 15 -110 25 -30 5 -184 12 -188 8z m155 -203 c52 -16 113 -77 131 -130
40 -122 -27 -275 -148 -337 -80 -41 -189 -55 -168 -22 4 7 8 18 9 23 1 6 5 28
9 50 3 22 8 49 10 60 2 11 7 38 11 60 4 22 8 62 8 88 1 65 -26 88 -103 85 -48
-1 -59 -6 -90 -37 -20 -20 -37 -45 -38 -56 -1 -11 -7 -42 -13 -70 -5 -27 -12
-68 -15 -90 -3 -22 -11 -62 -18 -90 -10 -43 -15 -50 -34 -47 -30 4 -82 -25
-92 -51 -20 -53 9 -112 59 -120 19 -3 25 -10 24 -28 -1 -29 -11 -98 -18 -131
-3 -12 -8 -34 -10 -48 -7 -46 -28 -115 -38 -127 -33 -40 -98 14 -132 109 -13
36 -24 79 -26 95 -5 77 -3 244 4 288 4 28 8 59 10 70 1 11 5 26 9 33 5 6 6 16
2 21 -3 5 -1 12 5 16 5 3 10 14 10 23 1 15 19 55 73 158 43 80 168 174 271
204 70 20 236 21 298 1z m1003 -618 c-8 -33 -10 -45 -20 -103 -4 -25 -10 -49
-13 -54 -3 -5 -6 -21 -8 -35 -7 -62 -33 -151 -56 -189 -22 -36 -63 -61 -93
-56 -11 2 -30 14 -42 28 -19 22 -21 35 -18 93 5 90 11 116 43 182 44 90 127
160 191 161 20 0 22 -3 16 -27z m2023 -65 c-10 -51 -21 -108 -24 -127 -3 -19
-14 -62 -25 -95 -37 -119 -86 -166 -146 -141 -27 11 -33 20 -38 59 -26 168 98
384 226 394 l26 2 -19 -92z"/>
<path d="M6717 5413 c-3 -2 -17 -6 -32 -9 -15 -3 -33 -10 -39 -17 -17 -17 -50
-68 -52 -81 -12 -68 -16 -85 -24 -111 -5 -16 -11 -41 -14 -55 -2 -14 -12 -61
-21 -105 -9 -44 -19 -89 -21 -100 -2 -11 -10 -54 -19 -95 -8 -41 -17 -86 -19
-100 -3 -14 -7 -36 -10 -50 -3 -13 -8 -40 -11 -60 -3 -20 -8 -47 -10 -60 -3
-14 -8 -45 -11 -70 -3 -25 -8 -47 -10 -49 -7 -8 25 -58 38 -58 7 0 18 -2 23
-3 27 -7 63 2 82 19 18 17 100 252 144 411 7 25 13 47 14 50 1 3 5 19 9 35 5
17 17 60 28 97 11 37 21 73 22 80 2 7 5 20 8 28 8 21 47 179 54 213 6 37 -2
63 -24 72 -26 10 -101 23 -105 18z"/>
<path d="M7250 5403 c-35 -14 -52 -29 -68 -59 -12 -23 -60 -217 -68 -273 -2
-19 -6 -37 -9 -41 -2 -4 -7 -22 -10 -41 -3 -19 -10 -54 -15 -79 -5 -25 -12
-56 -14 -70 -3 -14 -12 -63 -21 -109 -9 -46 -18 -97 -20 -112 -2 -16 -6 -36
-9 -46 -2 -10 -7 -40 -11 -67 -3 -27 -7 -52 -7 -55 -5 -17 15 -49 35 -58 30
-13 97 0 114 23 13 18 121 338 129 384 3 14 9 36 14 50 13 34 117 420 125 463
8 43 0 73 -23 83 -38 16 -112 20 -142 7z"/>
<path d="M7859 5409 c-53 -8 -87 -26 -95 -51 -3 -10 -10 -18 -15 -18 -5 0 -8
-3 -8 -7 1 -5 0 -10 -1 -13 -3 -8 -9 -33 -15 -65 -5 -26 -15 -74 -21 -97 -1
-5 -2 -9 -4 -10 -1 -2 -3 -12 -4 -23 -2 -11 -16 -76 -30 -145 -28 -127 -34
-156 -41 -200 -2 -14 -8 -50 -14 -80 -6 -30 -13 -68 -16 -85 -2 -16 -7 -41
-10 -55 -12 -54 -15 -136 -7 -148 16 -24 78 -31 114 -13 30 14 37 27 71 131
32 96 103 329 111 365 2 6 8 30 15 55 8 25 14 50 16 55 1 6 5 17 8 25 12 31
77 299 77 319 0 21 -26 50 -45 52 -5 1 -17 4 -25 8 -8 4 -36 4 -61 0z"/>
<path d="M6395 4291 c-86 -26 -131 -145 -87 -230 33 -66 97 -90 182 -68 32 8
100 61 98 76 0 3 1 8 2 11 25 65 8 153 -36 186 -34 26 -114 39 -159 25z"/>
<path d="M6960 4285 c-63 -20 -94 -68 -94 -144 -1 -73 16 -112 60 -136 45 -24
123 -24 169 1 69 37 98 156 57 230 -28 52 -114 74 -192 49z"/>
<path d="M7537 4289 c-9 -6 -17 -7 -17 -3 0 15 -62 -51 -72 -76 -16 -40 -18
-111 -3 -146 11 -28 75 -86 75 -68 0 3 6 2 13 -3 19 -14 88 -9 127 10 31 15
74 67 75 89 0 3 3 9 6 12 10 11 1 95 -15 128 -9 19 -29 39 -47 47 -39 17 -119
23 -142 10z"/>
</g>
</svg>
